<svg xmlns="http://www.w3.org/2000/svg" width="38" height="38" viewBox="0 0 38 38">
  <g id="diaphragm" transform="translate(0 -0.122)">
    <path id="Path_17279" data-name="Path 17279" d="M291.523,55.632l-9.972,7.245,16.709,12.14a19.122,19.122,0,0,0-6.737-19.386Z" transform="translate(-260.773 -51.362)" fill="#818ddb"/>
    <path id="Path_17280" data-name="Path 17280" d="M134.7,2.911a18.647,18.647,0,0,0-20.254.41l3.762,11.728Z" transform="translate(-105.892 0)" fill="#818ddb"/>
    <path id="Path_17281" data-name="Path 17281" d="M6.662,62.132A19.118,19.118,0,0,0,.7,81.766h12.34Z" transform="translate(0 -57.376)" fill="#818ddb"/>
    <path id="Path_17282" data-name="Path 17282" d="M19.817,354.862A19.166,19.166,0,0,0,36.659,366.6l3.813-11.734Z" transform="translate(-18.336 -328.474)" fill="#818ddb"/>
    <path id="Path_17283" data-name="Path 17283" d="M276.925,268.013a19.175,19.175,0,0,0,16.366-12.394l-9.982-7.253Z" transform="translate(-256.492 -229.937)" fill="#818ddb"/>
  </g>
</svg>
