<svg xmlns="http://www.w3.org/2000/svg" xmlns:xlink="http://www.w3.org/1999/xlink" width="371" height="71" viewBox="0 0 371 71">
  <defs>
    <filter id="Rectangle_10" x="0" y="0" width="371" height="71" filterUnits="userSpaceOnUse">
      <feOffset input="SourceAlpha"/>
      <feGaussianBlur stdDeviation="5" result="blur"/>
      <feFlood flood-opacity="0.051"/>
      <feComposite operator="in" in2="blur"/>
      <feComposite in="SourceGraphic"/>
    </filter>
  </defs>
  <g id="Group_11997" data-name="Group 11997" transform="translate(-2 -121)">
    <g transform="matrix(1, 0, 0, 1, 2, 121)" filter="url(#Rectangle_10)">
      <rect id="Rectangle_10-2" data-name="Rectangle 10" width="341" height="41" rx="20.5" transform="translate(15 15)" fill="#fff"/>
    </g>
    <g id="noun_Search_2475045" transform="translate(307.539 145.971)" style="isolation: isolate">
      <g id="Group_43" data-name="Group 43" transform="translate(0 0)" opacity="0.46">
        <path id="Path_6" data-name="Path 6" d="M70.7,70.462a1.02,1.02,0,0,0-1.5,1.377L72.376,75.3a1.02,1.02,0,0,0,1.5-1.377Z" transform="translate(-54.057 -54.355)" fill="#31323b"/>
        <path id="Path_7" data-name="Path 7" d="M28.008,19.489a1.02,1.02,0,0,0-1.966-.543,6.817,6.817,0,1,1-.905-5.61,1.02,1.02,0,0,0,1.7-1.135,8.854,8.854,0,1,0,1.176,7.288Z" transform="translate(-10.599 -8.263)" fill="#31323b"/>
        <path id="Path_8" data-name="Path 8" d="M73.338,32.894a1.02,1.02,0,1,0-1.986.462,2.654,2.654,0,0,1,.069.423l.015.161a1.02,1.02,0,0,0,1.012.91c.036,0,.074,0,.11-.005a1.02,1.02,0,0,0,.905-1.125l-.015-.145A4.32,4.32,0,0,0,73.338,32.894Z" transform="translate(-55.841 -26.026)" fill="#31323b"/>
      </g>
    </g>
    <text id="Search_" data-name="Search " transform="translate(40 162)" fill="#d5d5d5" font-size="14" font-family="Roboto-Regular, Roboto"><tspan x="0" y="0">Search </tspan></text>
  </g>
</svg>
