<svg xmlns="http://www.w3.org/2000/svg" width="122" height="98.8" viewBox="0 0 122 98.8">
  <g id="Group_11993" data-name="Group 11993" transform="translate(-2.68 -707)">
    <g id="Group_11418" data-name="Group 11418" transform="translate(-95.32 568)">
      <g id="Rectangle_48" data-name="Rectangle 48" transform="translate(98 139)" fill="#fff" stroke="#4c4c4c" stroke-width="1">
        <rect width="122" height="98.8" rx="12" stroke="none"/>
        <rect x="0.5" y="0.5" width="121" height="97.8" rx="11.5" fill="none"/>
      </g>
      <g id="Group_296" data-name="Group 296" transform="translate(145.983 176.304)">
        <circle id="Ellipse_151" data-name="Ellipse 151" cx="4.152" cy="4.152" r="4.152" transform="translate(8.83 9.223)" fill="#434b56"/>
        <path id="Path_129" data-name="Path 129" d="M26.858,7.191H21.573l-.479-1.77A2.039,2.039,0,0,0,19.236,4H11.461A2.037,2.037,0,0,0,9.6,5.421l-.48,1.77H3.838A1.472,1.472,0,0,0,2.366,8.663V26.086a1.473,1.473,0,0,0,1.472,1.472H26.858a1.473,1.473,0,0,0,1.472-1.472V8.663A1.472,1.472,0,0,0,26.858,7.191ZM15.348,24.46a7.086,7.086,0,1,1,7.086-7.086A7.087,7.087,0,0,1,15.348,24.46Z" transform="translate(-2.366 -4)" fill="#434b56"/>
      </g>
    </g>
  </g>
</svg>
