<svg xmlns="http://www.w3.org/2000/svg" width="122" height="98.8" viewBox="0 0 122 98.8">
  <g id="Group_11992" data-name="Group 11992" transform="translate(-126.36 -707)">
    <g id="Rectangle_1844" data-name="Rectangle 1844" transform="translate(126.36 707)" fill="#fff" stroke="#4c4c4c" stroke-width="1">
      <rect width="122" height="98.8" rx="12" stroke="none"/>
      <rect x="0.5" y="0.5" width="121" height="97.8" rx="11.5" fill="none"/>
    </g>
    <g id="noun_Video_966159" transform="translate(172.36 748.476)">
      <g id="Group_11939" data-name="Group 11939">
        <path id="Path_20477" data-name="Path 20477" d="M29.34,43.9H12.86a2.364,2.364,0,0,1-2.36-2.36V29.86a2.364,2.364,0,0,1,2.36-2.36H29.3a2.364,2.364,0,0,1,2.36,2.36V41.5A2.34,2.34,0,0,1,29.34,43.9Z" transform="translate(-10.5 -27.5)" fill="#434b56"/>
        <path id="Path_20478" data-name="Path 20478" d="M67.5,33.46v7.12l6.6,3.72a.4.4,0,0,0,.6-.36V30.1a.411.411,0,0,0-.6-.36Z" transform="translate(-44.7 -28.82)" fill="#434b56"/>
      </g>
    </g>
  </g>
</svg>
