<svg xmlns="http://www.w3.org/2000/svg" xmlns:xlink="http://www.w3.org/1999/xlink" width="62" height="62" viewBox="0 0 62 62">
  <defs>
    <filter id="Ellipse_38" x="0" y="0" width="62" height="62" filterUnits="userSpaceOnUse">
      <feOffset dy="3" input="SourceAlpha"/>
      <feGaussianBlur stdDeviation="3" result="blur"/>
      <feFlood flood-opacity="0.161"/>
      <feComposite operator="in" in2="blur"/>
      <feComposite in="SourceGraphic"/>
    </filter>
  </defs>
  <g id="Group_11972" data-name="Group 11972" transform="translate(-55 -430.001)">
    <g transform="matrix(1, 0, 0, 1, 55, 430)" filter="url(#Ellipse_38)">
      <circle id="Ellipse_38-2" data-name="Ellipse 38" cx="22" cy="22" r="22" transform="translate(9 6)" fill="#fff"/>
    </g>
    <g id="Group_206" data-name="Group 206">
      <g id="padlock_1_" data-name="padlock (1)" transform="translate(77 445.761)">
        <path id="Path_153" data-name="Path 153" d="M17.752,23.05H5.107A2.11,2.11,0,0,1,3,20.942V11.107A2.11,2.11,0,0,1,5.107,9H17.752a2.11,2.11,0,0,1,2.107,2.107v9.835A2.11,2.11,0,0,1,17.752,23.05ZM5.107,10.4a.7.7,0,0,0-.7.7v9.835a.7.7,0,0,0,.7.7H17.752a.7.7,0,0,0,.7-.7V11.107a.7.7,0,0,0-.7-.7Z" transform="translate(-3 -0.57)" fill="#818ddb"/>
        <path id="Path_154" data-name="Path 154" d="M16.537,9.835a.7.7,0,0,1-.7-.7V5.62a4.215,4.215,0,0,0-8.43,0V9.132a.7.7,0,1,1-1.4,0V5.62a5.62,5.62,0,0,1,11.24,0V9.132A.7.7,0,0,1,16.537,9.835Z" transform="translate(-3.19)" fill="#818ddb"/>
        <path id="Path_155" data-name="Path 155" d="M11.873,16.747a1.873,1.873,0,1,1,1.873-1.873A1.875,1.875,0,0,1,11.873,16.747Zm0-2.342a.468.468,0,1,0,.468.468A.469.469,0,0,0,11.873,14.4Z" transform="translate(-3.443 -0.823)" fill="#818ddb"/>
        <path id="Path_156" data-name="Path 156" d="M11.952,19.731a.7.7,0,0,1-.7-.7V16.452a.7.7,0,0,1,1.4,0v2.576A.7.7,0,0,1,11.952,19.731Z" transform="translate(-3.523 -0.998)" fill="#818ddb"/>
      </g>
    </g>
  </g>
</svg>
