<svg xmlns="http://www.w3.org/2000/svg" width="38" height="38" viewBox="0 0 38 38">
  <path id="user_1_" data-name="user (1)" d="M38,19A19,19,0,1,0,6.167,33l-.018.016.616.52c.04.034.084.061.124.095.327.272.667.529,1.012.779.112.081.224.162.338.24q.553.381,1.134.724c.084.05.169.1.254.146.424.241.856.468,1.3.677l.1.044a18.829,18.829,0,0,0,4.6,1.454l.127.023c.5.086,1.006.155,1.518.2l.187.015c.51.042,1.025.069,1.548.069s1.028-.027,1.535-.068l.193-.015q.762-.069,1.5-.2l.129-.023a18.828,18.828,0,0,0,4.53-1.42c.053-.024.106-.047.158-.072q.639-.3,1.251-.647.152-.086.3-.175c.372-.219.737-.448,1.092-.691.128-.087.253-.179.379-.27.3-.218.6-.444.891-.679.064-.052.133-.1.2-.15l.632-.528-.019-.016A18.951,18.951,0,0,0,38,19ZM1.382,19a17.618,17.618,0,1,1,29.3,13.171,5.178,5.178,0,0,0-.617-.371l-5.85-2.925a1.531,1.531,0,0,1-.851-1.377V25.455c.135-.167.278-.357.426-.564a14.079,14.079,0,0,0,1.807-3.54,2.507,2.507,0,0,0,1.441-2.272V16.629a2.514,2.514,0,0,0-.613-1.637V11.768a5.572,5.572,0,0,0-1.3-4.051C23.853,6.263,21.792,5.527,19,5.527s-4.853.736-6.126,2.189a5.573,5.573,0,0,0-1.3,4.051v3.224a2.517,2.517,0,0,0-.613,1.637v2.449a2.513,2.513,0,0,0,.926,1.949,12.982,12.982,0,0,0,2.137,4.414v2a1.541,1.541,0,0,1-.8,1.353l-5.463,2.98a4.993,4.993,0,0,0-.52.329A17.576,17.576,0,0,1,1.382,19Z" fill="#c1c0c9"/>
</svg>
