<svg xmlns="http://www.w3.org/2000/svg" width="108" height="108" viewBox="0 0 108 108">
  <g id="profile-user" transform="translate(0 -0.001)">
    <path id="Path_20484" data-name="Path 20484" d="M54,0a54,54,0,1,0,54,54A54,54,0,0,0,54,0Zm0,16.147A17.862,17.862,0,1,1,36.142,34.009,17.862,17.862,0,0,1,54,16.148Zm-.012,77.735a39.629,39.629,0,0,1-25.807-9.517A7.612,7.612,0,0,1,25.51,78.58a18.013,18.013,0,0,1,18.1-18.009H64.394A17.987,17.987,0,0,1,82.466,78.58,7.593,7.593,0,0,1,79.8,84.363,39.616,39.616,0,0,1,53.988,93.882Z" transform="translate(0 0)" fill="#fff"/>
  </g>
</svg>
