<svg xmlns="http://www.w3.org/2000/svg" width="108" height="108" viewBox="0 0 108 108">
  <path id="user_1_" data-name="user (1)" d="M108,54A54,54,0,1,0,17.527,93.779l-.051.045L19.228,95.3c.114.1.238.175.351.269.931.772,1.895,1.5,2.877,2.213.318.23.636.459.96.683q1.573,1.084,3.224,2.058c.24.141.481.279.723.416,1.2.685,2.433,1.331,3.692,1.924.092.043.187.082.279.126a53.514,53.514,0,0,0,13.06,4.133l.361.065c1.422.245,2.859.442,4.314.573.177.016.353.026.532.041,1.449.12,2.914.2,4.4.2s2.922-.077,4.363-.192c.183-.016.365-.026.548-.041q2.165-.2,4.277-.564c.122-.022.245-.043.367-.067A53.511,53.511,0,0,0,76.431,103.1c.149-.069.3-.134.45-.2q1.817-.854,3.556-1.838.433-.244.862-.5c1.056-.622,2.1-1.272,3.1-1.964.363-.247.719-.509,1.078-.768.862-.621,1.708-1.261,2.531-1.93.183-.147.379-.275.558-.426l1.8-1.5-.053-.045A53.86,53.86,0,0,0,108,54ZM3.927,54a50.073,50.073,0,1,1,83.28,37.433,14.716,14.716,0,0,0-1.754-1.054L68.827,82.066a4.352,4.352,0,0,1-2.419-3.914V72.346c.385-.475.791-1.013,1.212-1.6a40.015,40.015,0,0,0,5.137-10.06,7.126,7.126,0,0,0,4.094-6.458V47.263a7.144,7.144,0,0,0-1.742-4.652V33.447a15.836,15.836,0,0,0-3.7-11.515C67.793,17.8,61.935,15.709,54,15.709S40.207,17.8,36.588,21.93a15.84,15.84,0,0,0-3.7,11.515v9.164a7.155,7.155,0,0,0-1.742,4.652v6.961a7.143,7.143,0,0,0,2.631,5.539,36.9,36.9,0,0,0,6.074,12.546V77.99a4.38,4.38,0,0,1-2.282,3.845L22.046,90.3a14.191,14.191,0,0,0-1.477.935A49.952,49.952,0,0,1,3.927,54Z" fill="#fff"/>
</svg>
