<svg xmlns="http://www.w3.org/2000/svg" xmlns:xlink="http://www.w3.org/1999/xlink" width="57" height="56" viewBox="0 0 57 56">
  <defs>
    <filter id="Ellipse_2901" x="0" y="0" width="57" height="56" filterUnits="userSpaceOnUse">
      <feOffset dy="3" input="SourceAlpha"/>
      <feGaussianBlur stdDeviation="3" result="blur"/>
      <feFlood flood-opacity="0.341"/>
      <feComposite operator="in" in2="blur"/>
      <feComposite in="SourceGraphic"/>
    </filter>
  </defs>
  <g id="Group_12034" data-name="Group 12034" transform="translate(-301 -151)">
    <g transform="matrix(1, 0, 0, 1, 301, 151)" filter="url(#Ellipse_2901)">
      <ellipse id="Ellipse_2901-2" data-name="Ellipse 2901" cx="19.5" cy="19" rx="19.5" ry="19" transform="translate(9 6)" fill="rgba(0,0,0,0.34)"/>
    </g>
    <g id="Group_12021" data-name="Group 12021" transform="translate(1 3)">
      <g id="love" transform="translate(322.788 161.101)">
        <g id="Group_11450" data-name="Group 11450" transform="translate(0 0)">
          <path id="Path_17276" data-name="Path 17276" d="M6.429,42.658C2.657,39.357,0,37.609,0,34.827A3.646,3.646,0,0,1,3.553,31a3.538,3.538,0,0,1,3.135,2.116A3.538,3.538,0,0,1,9.822,31a3.646,3.646,0,0,1,3.553,3.827c0,2.781-2.653,4.527-6.429,7.831A.392.392,0,0,1,6.429,42.658Z" transform="translate(0 -31)" fill="#fff"/>
        </g>
      </g>
    </g>
  </g>
</svg>
