<svg xmlns="http://www.w3.org/2000/svg" xmlns:xlink="http://www.w3.org/1999/xlink" width="57" height="57" viewBox="0 0 57 57">
  <defs>
    <filter id="Ellipse_2903" x="0" y="0" width="57" height="57" filterUnits="userSpaceOnUse">
      <feOffset dy="3" input="SourceAlpha"/>
      <feGaussianBlur stdDeviation="3" result="blur"/>
      <feFlood flood-opacity="0.341"/>
      <feComposite operator="in" in2="blur"/>
      <feComposite in="SourceGraphic"/>
    </filter>
  </defs>
  <g id="Group_12034" data-name="Group 12034" transform="translate(-302 -291)">
    <g transform="matrix(1, 0, 0, 1, 302, 291)" filter="url(#Ellipse_2903)">
      <circle id="Ellipse_2903-2" data-name="Ellipse 2903" cx="19.5" cy="19.5" r="19.5" transform="translate(9 6)" fill="rgba(0,0,0,0.34)"/>
    </g>
    <path id="hello_1_" data-name="hello (1)" d="M12.346,5.861a2.239,2.239,0,0,0-1.48.537c-1.271,1.3-1.187,1.21-1.2,1.218a.651.651,0,0,1-1.087-.4,9.106,9.106,0,0,1,.007-1.05l1.4-4.614A.663.663,0,0,0,9.46.739a.771.771,0,0,0-.926.471L7.063,5.728c-.066.2-.408.161-.408-.05v-5A.716.716,0,0,0,5.9.011a.716.716,0,0,0-.756.666V5.532c0,.213-.347.252-.409.047L3.471,1.426a.681.681,0,0,0-.353-.4c-.58-.294-1.282.177-1.108.75l1.3,4.259c.063.206-.261.322-.381.138L1.212,3.556A.669.669,0,0,0,.649,3.27a.576.576,0,0,0-.561.859l1.2,1.834a4.468,4.468,0,0,1,.746,2.451,3.152,3.152,0,0,0,3.328,2.931h.759a3.889,3.889,0,0,0,2.578-.94L12.721,6.7a.479.479,0,0,0,.174-.33A.515.515,0,0,0,12.346,5.861ZM8.18,7.748a2.8,2.8,0,0,0-2.611,2.624.21.21,0,0,1-.416,0A3.181,3.181,0,0,1,8.125,7.385a.2.2,0,0,1,.234.157.189.189,0,0,1-.179.205Z" transform="translate(323.68 305.789)" fill="#818ddb"/>
  </g>
</svg>
