<svg xmlns="http://www.w3.org/2000/svg" width="37" height="36" viewBox="0 0 37 36">
  <g id="Group_11999" data-name="Group 11999" transform="translate(-323 -197)">
    <ellipse id="Ellipse_2902" data-name="Ellipse 2902" cx="18.5" cy="18" rx="18.5" ry="18" transform="translate(323 197)" fill="rgba(0,0,0,0.34)"/>
    <g id="oval-black-speech-bubble" transform="translate(333.246 208.914)">
      <g id="Group_11451" data-name="Group 11451" transform="translate(0 0)">
        <path id="Path_17277" data-name="Path 17277" d="M16.414,9.579A6.1,6.1,0,0,1,14.5,13.937v2.881l-2.842-1.1a9.173,9.173,0,0,1-3.2.568c-4.394,0-7.957-3-7.957-6.7S4.063,2.874,8.457,2.874,16.414,5.876,16.414,9.579Z" transform="translate(-0.323 -2.697)" fill="#818ddb"/>
        <path id="Path_17278" data-name="Path 17278" d="M14.137,16.673a.224.224,0,0,1-.081-.015L11.31,15.594a9.329,9.329,0,0,1-3.176.549C3.649,16.143,0,13.054,0,9.259S3.649,2.374,8.135,2.374s8.135,3.088,8.135,6.884a6.284,6.284,0,0,1-1.906,4.422v2.763a.23.23,0,0,1-.1.189A.226.226,0,0,1,14.137,16.673Zm-2.824-1.551a.224.224,0,0,1,.081.015l2.517.975V13.584a.23.23,0,0,1,.069-.164,5.843,5.843,0,0,0,1.837-4.162c0-3.544-3.446-6.426-7.683-6.426S.452,5.714.452,9.259,3.9,15.685,8.135,15.685a8.873,8.873,0,0,0,3.1-.55A.218.218,0,0,1,11.312,15.121Z" transform="translate(0 -2.374)" fill="#818ddb"/>
      </g>
    </g>
  </g>
</svg>
