<svg xmlns="http://www.w3.org/2000/svg" width="37" height="37" viewBox="0 0 37 37">
  <g id="Group_11998" data-name="Group 11998" transform="translate(-323 -139)">
    <circle id="Ellipse_2901" data-name="Ellipse 2901" cx="18.5" cy="18.5" r="18.5" transform="translate(323 139)" fill="rgba(0,0,0,0.34)"/>
    <g id="love" transform="translate(333.336 149.826)">
      <g id="Group_11450" data-name="Group 11450" transform="translate(0 0)">
        <path id="Path_17276" data-name="Path 17276" d="M7.82,45.181C3.232,41.165,0,39.039,0,35.655A4.435,4.435,0,0,1,4.321,31a4.3,4.3,0,0,1,3.813,2.574A4.3,4.3,0,0,1,11.947,31a4.435,4.435,0,0,1,4.321,4.655c0,3.383-3.227,5.506-7.82,9.525A.477.477,0,0,1,7.82,45.181Z" transform="translate(0 -31)" fill="red"/>
      </g>
    </g>
  </g>
</svg>
