<svg xmlns="http://www.w3.org/2000/svg" width="13.7" height="11.58" viewBox="0 0 13.7 11.58">
  <path id="hello_1_" data-name="hello (1)" d="M13.116,5.988a2.436,2.436,0,0,0-1.573.549c-1.35,1.324-1.261,1.237-1.27,1.244-.426.361-1.155.106-1.155-.4A8.948,8.948,0,0,1,9.126,6.3l1.491-4.714A.678.678,0,0,0,10.05.755a.827.827,0,0,0-.984.481L7.5,5.852c-.07.207-.433.164-.433-.051V.692a.751.751,0,0,0-.8-.681.751.751,0,0,0-.8.681v4.96c0,.218-.368.258-.434.048L3.687,1.457a.7.7,0,0,0-.375-.414c-.616-.3-1.362.181-1.177.766L3.512,6.161c.067.21-.277.329-.4.141L1.287,3.633a.72.72,0,0,0-.6-.292c-.525,0-.862.486-.6.877L1.371,6.092a4.442,4.442,0,0,1,.792,2.5A3.3,3.3,0,0,0,5.7,11.591H6.5a4.23,4.23,0,0,0,2.739-.96l4.27-3.786a.485.485,0,0,0,.185-.337A.539.539,0,0,0,13.116,5.988ZM8.69,7.916A2.911,2.911,0,0,0,5.916,10.6a.224.224,0,0,1-.442,0A3.313,3.313,0,0,1,8.631,7.545a.217.217,0,0,1,.248.161.2.2,0,0,1-.19.21Z" transform="translate(0 -0.011)" fill="#818ddb"/>
</svg>
