<svg xmlns="http://www.w3.org/2000/svg" width="37" height="37" viewBox="0 0 37 37">
  <g id="Group_12002" data-name="Group 12002" transform="translate(-323 -313)">
    <g id="Group_12001" data-name="Group 12001">
      <circle id="Ellipse_2903" data-name="Ellipse 2903" cx="18.5" cy="18.5" r="18.5" transform="translate(323 313)" fill="rgba(0,0,0,0.34)"/>
      <path id="hello_1_" data-name="hello (1)" d="M15.576,7.391a2.825,2.825,0,0,0-1.868.678C12.1,9.7,12.211,9.6,12.2,9.605a.821.821,0,0,1-1.371-.5,11.488,11.488,0,0,1,.009-1.325l1.771-5.821a.837.837,0,0,0-.675-1.03.973.973,0,0,0-1.168.594l-1.855,5.7c-.083.256-.515.2-.515-.063V.852A.9.9,0,0,0,7.442.011a.9.9,0,0,0-.954.841V6.976c0,.269-.437.318-.516.059L4.378,1.8a.859.859,0,0,0-.445-.511c-.731-.371-1.617.223-1.4.946L4.17,7.6c.079.26-.329.407-.481.175l-2.16-3.3a.845.845,0,0,0-.71-.361A.727.727,0,0,0,.11,5.206L1.628,7.52a5.637,5.637,0,0,1,.941,3.092,3.976,3.976,0,0,0,4.2,3.7h.958a4.906,4.906,0,0,0,3.253-1.186l5.071-4.674a.6.6,0,0,0,.22-.416A.65.65,0,0,0,15.576,7.391ZM10.32,9.771a3.526,3.526,0,0,0-3.294,3.311.265.265,0,0,1-.525,0A4.014,4.014,0,0,1,10.25,9.314a.258.258,0,0,1,.295.2.238.238,0,0,1-.225.259Z" transform="translate(333.414 324.617)" fill="#818ddb"/>
    </g>
  </g>
</svg>
