<svg id="oval-black-speech-bubble" xmlns="http://www.w3.org/2000/svg" width="13.7" height="11.58" viewBox="0 0 13.7 11.58">
  <g id="Group_11451" data-name="Group 11451">
    <path id="Path_17277" data-name="Path 17277" d="M13.813,8.256a4.806,4.806,0,0,1-1.6,3.5v2.312l-2.377-.885a7.963,7.963,0,0,1-2.675.456C3.48,13.638.5,11.229.5,8.256S3.48,2.874,7.156,2.874,13.813,5.284,13.813,8.256Z" transform="translate(-0.306 -2.68)" fill="#818ddb"/>
    <path id="Path_17278" data-name="Path 17278" d="M11.9,13.954a.2.2,0,0,1-.068-.012l-2.312-.861a8.137,8.137,0,0,1-2.674.444C3.073,13.525,0,11.024,0,7.95S3.073,2.374,6.85,2.374s6.85,2.5,6.85,5.575a5,5,0,0,1-1.605,3.582v2.238a.184.184,0,0,1-.083.153A.2.2,0,0,1,11.9,13.954ZM9.526,12.7a.2.2,0,0,1,.068.012l2.12.789V11.453a.183.183,0,0,1,.058-.133,4.65,4.65,0,0,0,1.547-3.371c0-2.87-2.9-5.2-6.469-5.2S.381,5.079.381,7.95s2.9,5.2,6.469,5.2a7.738,7.738,0,0,0,2.611-.446A.19.19,0,0,1,9.526,12.7Z" transform="translate(0 -2.374)" fill="#818ddb"/>
  </g>
</svg>
