<svg id="Group_11606" data-name="Group 11606" xmlns="http://www.w3.org/2000/svg" width="41.65" height="38.12" viewBox="0 0 41.65 38.12">
  <g id="Group_11605" data-name="Group 11605">
    <path id="Path_20431" data-name="Path 20431" d="M287.344,97.6A19.073,19.073,0,0,0,270.43,78.654a19.569,19.569,0,0,1,0,37.9A19.073,19.073,0,0,0,287.344,97.6Z" transform="translate(-245.694 -78.529)" fill="#818ddb"/>
    <path id="Path_20432" data-name="Path 20432" d="M161.286,78.027q-.5-.026-1-.026c-.47,0-.934.023-1.4.056-.209.015-.419.029-.626.051a19.074,19.074,0,0,0,0,37.931c.207.022.417.036.626.051l2.4.03a19.073,19.073,0,0,0,0-38.094Zm-1,33.224a14.177,14.177,0,1,1,14.177-14.177A14.193,14.193,0,0,1,160.282,111.251Z" transform="translate(-141.209 -78.001)" fill="#818ddb"/>
    <ellipse id="Ellipse_2937" data-name="Ellipse 2937" cx="13.009" cy="13.009" rx="13.009" ry="13.009" transform="translate(3.424 9.401) rotate(-13.283)" fill="#818ddb"/>
    <path id="Path_20433" data-name="Path 20433" d="M230.078,138.913a1.735,1.735,0,0,1-.056.3,1.993,1.993,0,0,1-.111.306,2.053,2.053,0,0,1-.146.271.685.685,0,0,1-.174.188.373.373,0,0,1-.223.07h-3.2l-1.406,6.988q-.056.292-.1.654a5.479,5.479,0,0,0-.042.6,1.5,1.5,0,0,0,.3,1.037,1.255,1.255,0,0,0,.968.327,3.014,3.014,0,0,0,.654-.063,4.56,4.56,0,0,0,.48-.132q.2-.07.355-.132a.714.714,0,0,1,.264-.063.213.213,0,0,1,.174.076.473.473,0,0,1,.062.286,2.51,2.51,0,0,1-.035.4c-.023.144-.054.285-.091.425a1.969,1.969,0,0,1-.139.376,1.017,1.017,0,0,1-.181.265,1.321,1.321,0,0,1-.334.2,3.512,3.512,0,0,1-.515.174,4.9,4.9,0,0,1-.62.118,5.114,5.114,0,0,1-.647.042,4.838,4.838,0,0,1-1.35-.167,2.4,2.4,0,0,1-.961-.522,2.136,2.136,0,0,1-.578-.891,3.905,3.905,0,0,1-.188-1.288q0-.167.014-.369c.009-.134.026-.276.049-.425s.046-.3.069-.445.049-.288.077-.418l1.406-7.044h-1.74a.306.306,0,0,1-.237-.09.542.542,0,0,1-.083-.355,2.88,2.88,0,0,1,.042-.452,2.521,2.521,0,0,1,.126-.48,1.219,1.219,0,0,1,.216-.376.4.4,0,0,1,.313-.153h1.754l.6-2.979a.333.333,0,0,1,.09-.181.65.65,0,0,1,.216-.146,1.3,1.3,0,0,1,.369-.091,4.839,4.839,0,0,1,.564-.028,4.48,4.48,0,0,1,.55.028,1.016,1.016,0,0,1,.334.091.314.314,0,0,1,.153.146.341.341,0,0,1,.021.181l-.6,2.979h3.2a.275.275,0,0,1,.278.153.832.832,0,0,1,.07.348Q230.092,138.767,230.078,138.913Z" transform="translate(-206.369 -123.86)" fill="#fff"/>
  </g>
</svg>
