<svg xmlns="http://www.w3.org/2000/svg" width="22.122" height="22.122" viewBox="0 0 22.122 22.122">
  <g id="about" transform="translate(0)">
    <path id="Path_20479" data-name="Path 20479" d="M18.882,3.24A11.061,11.061,0,0,0,3.24,18.882,11.061,11.061,0,0,0,18.882,3.24ZM11.062,18.666a.691.691,0,0,1,0-1.383h0a.691.691,0,1,1,0,1.383Zm2.2-7.1a5.116,5.116,0,0,0-1.508,3.642.691.691,0,0,1-1.383,0,6.49,6.49,0,0,1,1.913-4.619,4.062,4.062,0,0,0,1.2-2.891,2.17,2.17,0,0,0-2.168-2.168h-.158A2.17,2.17,0,0,0,8.987,7.7V7.95a.691.691,0,1,1-1.383,0V7.7a3.555,3.555,0,0,1,3.551-3.551h.158A3.555,3.555,0,0,1,14.863,7.7,5.435,5.435,0,0,1,13.261,11.567Z" fill="#818ddb"/>
  </g>
</svg>
