<svg xmlns="http://www.w3.org/2000/svg" width="23.333" height="23.332" viewBox="0 0 23.333 23.332">
  <g id="coin_1_" data-name="coin (1)" transform="translate(-3 -3)">
    <path id="Path_17246" data-name="Path 17246" d="M32.631,18.32a4.392,4.392,0,0,1-4.79,1.72c-.772,1.145-1.065,2.357-.64,2.781.525.524,2.375-.04,3.785-1.448A5.294,5.294,0,0,0,32.631,18.32Z" transform="translate(-14.349 -9.157)" fill="#818ddb"/>
    <path id="Path_17247" data-name="Path 17247" d="M19.575,26.636l-.292-.292a4.645,4.645,0,0,1-.5,1.216l.541.541C19.714,27.336,19.74,26.8,19.575,26.636Z" transform="translate(-9.435 -13.953)" fill="#818ddb"/>
    <path id="Path_17248" data-name="Path 17248" d="M16.162,31.863h1.017c.052-.071.1-.141.151-.21l-.556-.556A9.517,9.517,0,0,1,16.162,31.863Z" transform="translate(-7.867 -16.794)" fill="#818ddb"/>
    <path id="Path_17249" data-name="Path 17249" d="M16.766,18.809l-.564.564a8.58,8.58,0,0,0,.931.747l.556-.556A9.43,9.43,0,0,1,16.766,18.809Z" transform="translate(-7.891 -9.449)" fill="#818ddb"/>
    <path id="Path_17250" data-name="Path 17250" d="M39.652,25.269a6.54,6.54,0,0,0,.926-1.35l-.618-.618a7.534,7.534,0,0,1-.951,1.324Z" transform="translate(-21.523 -12.134)" fill="#818ddb"/>
    <path id="Path_17251" data-name="Path 17251" d="M21.747,22.579l.291-.291a3.764,3.764,0,0,1-.663-.217,5.791,5.791,0,0,1-.556-.279l-.541.541c.095.048.188.093.28.132C21.112,22.7,21.579,22.748,21.747,22.579Z" transform="translate(-10.327 -11.233)" fill="#818ddb"/>
    <path id="Path_17252" data-name="Path 17252" d="M44.93,31.653c.048.069.1.138.15.208H46.1a9.447,9.447,0,0,1-.613-.766Z" transform="translate(-25.062 -16.793)" fill="#818ddb"/>
    <path id="Path_17253" data-name="Path 17253" d="M45.917,15.482a2.463,2.463,0,0,1,1.567.224l.037.017A8.536,8.536,0,0,0,49.048,14.5c1.556-1.556,2.047-3.053,1.7-3.4-.169-.169-.635-.124-1.189.114A7.481,7.481,0,0,0,47.349,12.8a8.023,8.023,0,0,0-1.433,1.9A2.46,2.46,0,0,1,45.917,15.482Z" transform="translate(-25.652 -4.782)" fill="#818ddb"/>
    <path id="Path_17254" data-name="Path 17254" d="M55.809,19.021l.565.565a8.58,8.58,0,0,0,.747-.931l-.559-.559A9.68,9.68,0,0,1,55.809,19.021Z" transform="translate(-31.565 -9.023)" fill="#818ddb"/>
    <path id="Path_17255" data-name="Path 17255" d="M42.777,19.229l-.235-.235a4.2,4.2,0,0,1-.26.961l.578.578A1.378,1.378,0,0,0,42.777,19.229Z" transform="translate(-23.48 -9.56)" fill="#818ddb"/>
    <path id="Path_17256" data-name="Path 17256" d="M52.585,23.085a8.744,8.744,0,0,0,.888-.717l-.566-.566a9.512,9.512,0,0,1-1,.81C52.134,22.753,52.361,22.911,52.585,23.085Z" transform="translate(-29.235 -11.238)" fill="#818ddb"/>
    <path id="Path_17257" data-name="Path 17257" d="M59.459,14.823c.237-.554.282-1.021.114-1.189l-.293-.293a4.652,4.652,0,0,1-.5,1.217l.545.545C59.375,15.009,59.42,14.916,59.459,14.823Z" transform="translate(-33.342 -6.181)" fill="#818ddb"/>
    <path id="Path_17258" data-name="Path 17258" d="M43.374,28.372l.544-.544a4.936,4.936,0,0,1-.449-1.036,7.446,7.446,0,0,1-.427.632A3.083,3.083,0,0,0,43.374,28.372Z" transform="translate(-23.935 -14.221)" fill="#818ddb"/>
    <path id="Path_17259" data-name="Path 17259" d="M36.262,28.646,35.615,28a7.515,7.515,0,0,1-1.326.95l.621.621A6.447,6.447,0,0,0,36.262,28.646Z" transform="translate(-18.702 -14.942)" fill="#818ddb"/>
    <path id="Path_17260" data-name="Path 17260" d="M47.62,27.5c.041.041.083.08.124.12h2.97a8.183,8.183,0,0,0-1.4-1.819,7.481,7.481,0,0,0-2.211-1.587c-.554-.238-1.021-.283-1.189-.114s-.123.635.114,1.189A7.5,7.5,0,0,0,47.62,27.5Z" transform="translate(-25.593 -12.552)" fill="#818ddb"/>
    <path id="Path_17261" data-name="Path 17261" d="M30.227,31.776c.23.229.713.249,1.3.08l-.576-.576a4.243,4.243,0,0,1-.961.26Z" transform="translate(-16.133 -16.904)" fill="#818ddb"/>
    <path id="Path_17262" data-name="Path 17262" d="M13.677,16.589l.564-.564a9.647,9.647,0,0,1-.756-.922l-.556.556A8.493,8.493,0,0,0,13.677,16.589Z" transform="translate(-5.935 -7.234)" fill="#818ddb"/>
    <path id="Path_17263" data-name="Path 17263" d="M11.347,12.11l.541-.541a5.792,5.792,0,0,1-.279-.556,3.774,3.774,0,0,1-.218-.662l-.29.29c-.168.169-.123.635.114,1.189C11.255,11.921,11.3,12.015,11.347,12.11Z" transform="translate(-4.782 -4.394)" fill="#818ddb"/>
    <path id="Path_17264" data-name="Path 17264" d="M18.7,13.307a4.422,4.422,0,0,1-2-3.7c0-.119.008-.235.018-.351C15.334,8.091,14.19,7.825,13.913,8.1c-.346.346.144,1.843,1.7,3.4A5.33,5.33,0,0,0,18.7,13.307Z" transform="translate(-6.46 -2.99)" fill="#818ddb"/>
    <path id="Path_17265" data-name="Path 17265" d="M14.267,47.85h3.218A9.263,9.263,0,0,0,26.728,39H5.025a9.263,9.263,0,0,0,9.242,8.85Zm10.776-8.106.8.12a8.3,8.3,0,0,1-.173.845l-.779-.2A7.775,7.775,0,0,0,25.043,39.745Zm-.4,1.528.753.282a8.5,8.5,0,0,1-3.689,4.357l-.4-.7A7.687,7.687,0,0,0,24.646,41.272Zm-8.769,2.555a1.611,1.611,0,0,1-1.609-1.609V40.609h1.207v-.8h.8v.862a1.607,1.607,0,0,1,1.207,1.552h-.8a.805.805,0,0,0-.8-.8h-.8v.8a.805.805,0,0,0,.8.8,1.611,1.611,0,0,1,1.609,1.609v1.609H16.279v.8h-.8v-.862a1.607,1.607,0,0,1-1.207-1.552h.8a.805.805,0,0,0,.8.8h.8v-.8A.805.805,0,0,0,15.876,43.827Zm-6.607.549-.527.608c-.212-.184-.418-.38-.61-.583l.585-.553C8.892,44.032,9.078,44.21,9.27,44.376ZM8.22,43.267l-.636.493c-.172-.223-.335-.456-.483-.693l.682-.427C7.917,42.855,8.065,43.066,8.22,43.267Zm-.81-1.294-.721.357a8.223,8.223,0,0,1-.336-.775l.753-.282C7.2,41.51,7.3,41.746,7.411,41.973Z" transform="translate(-1.21 -21.518)" fill="#818ddb"/>
    <path id="Path_17266" data-name="Path 17266" d="M26.332,35H14.724L14.7,35l-.021,0H3v.8H26.333Z" transform="translate(0 -19.127)" fill="#818ddb"/>
    <path id="Path_17267" data-name="Path 17267" d="M9.115,27.5A7.5,7.5,0,0,0,10.7,25.291c.237-.554.282-1.021.114-1.189a.349.349,0,0,0-.178-.086,1.9,1.9,0,0,0-1.01.2A7.486,7.486,0,0,0,7.418,25.8l-.056.058c-.116.118-.228.239-.336.36-.038.043-.076.085-.113.128q-.171.2-.324.4c-.033.043-.064.086-.095.129-.1.134-.19.268-.274.4-.019.031-.037.061-.055.092-.05.084-.093.166-.138.248H8.992C9.033,27.581,9.074,27.543,9.115,27.5Z" transform="translate(-1.811 -12.553)" fill="#818ddb"/>
    <path id="Path_17268" data-name="Path 17268" d="M26.621,10.241A3.621,3.621,0,1,0,23,6.621,3.625,3.625,0,0,0,26.621,10.241Zm2.414-4.023a.4.4,0,1,1-.4.4A.4.4,0,0,1,29.034,6.218Zm-2.414.8a1.208,1.208,0,0,1-1.207-1.207V4.609h.8V3.8h.8v.879a1.205,1.205,0,0,1,.8,1.133h-.8a.4.4,0,0,0-.4-.4h-.4v.4a.4.4,0,0,0,.4.4,1.208,1.208,0,0,1,1.207,1.207V8.632h-.8v.8h-.8V8.558a1.205,1.205,0,0,1-.8-1.133h.8a.4.4,0,0,0,.4.4h.4v-.4A.4.4,0,0,0,26.621,7.023Zm-2.816-.4a.4.4,0,1,1,.4.4A.4.4,0,0,1,23.8,6.621Z" transform="translate(-11.954)" fill="#818ddb"/>
  </g>
</svg>
