<svg xmlns="http://www.w3.org/2000/svg" width="22.766" height="22.673" viewBox="0 0 22.766 22.673">
  <g id="Group_11574" data-name="Group 11574" transform="translate(-31 -203.367)">
    <g id="Group_11308" data-name="Group 11308" transform="translate(31 209.792)">
      <g id="Group_11307" data-name="Group 11307">
        <path id="Path_17230" data-name="Path 17230" d="M14.97,24.584a6.814,6.814,0,0,0-.043-1.647l1.248-.556A8.218,8.218,0,0,0,14.668,19l-1.248.556a6.837,6.837,0,0,0-1.2-1.134l.489-1.275a8.255,8.255,0,0,0-3.457-1.328l-.49,1.276a6.814,6.814,0,0,0-1.647.043l-.553-1.242a8.249,8.249,0,0,0-3.38,1.515l.549,1.233a6.825,6.825,0,0,0-1.135,1.2L1.33,19.35A8.108,8.108,0,0,0,.465,21,8.347,8.347,0,0,0,0,22.805l1.275.489a6.814,6.814,0,0,0,.043,1.647L.071,25.5a8.212,8.212,0,0,0,1.507,3.383l1.248-.556a6.812,6.812,0,0,0,1.2,1.134l-.489,1.276a8.255,8.255,0,0,0,3.457,1.328l.49-1.276a6.835,6.835,0,0,0,1.647-.044l.553,1.241a8.248,8.248,0,0,0,3.38-1.515l-.55-1.233a6.826,6.826,0,0,0,1.135-1.2l1.271.488a8.116,8.116,0,0,0,.865-1.652,8.257,8.257,0,0,0,.466-1.8Zm-3.389.682a3.7,3.7,0,1,1-2.132-4.784A3.7,3.7,0,0,1,11.581,25.266Z" transform="translate(0 -15.816)" fill="#818ddb"/>
      </g>
    </g>
    <g id="Group_11310" data-name="Group 11310" transform="translate(44.055 203.367)">
      <g id="Group_11309" data-name="Group 11309">
        <path id="Path_17231" data-name="Path 17231" d="M40.726,5.14a3.983,3.983,0,0,0-.069-.724l.956-.552a5.019,5.019,0,0,0-1.321-2.292l-.959.554A3.94,3.94,0,0,0,38.081,1.4V.3a4.894,4.894,0,0,0-2.645,0V1.4a3.952,3.952,0,0,0-1.253.723l-.959-.554A5.03,5.03,0,0,0,31.9,3.864l.957.552a3.823,3.823,0,0,0,0,1.448l-.957.552a5.028,5.028,0,0,0,1.321,2.292l.959-.554a3.945,3.945,0,0,0,1.253.723V9.984a4.894,4.894,0,0,0,2.645,0V8.877a3.948,3.948,0,0,0,1.253-.723l.959.554a5.02,5.02,0,0,0,1.321-2.292l-.956-.552A3.955,3.955,0,0,0,40.726,5.14ZM36.759,6.992A1.852,1.852,0,1,1,38.61,5.14,1.852,1.852,0,0,1,36.759,6.992Z" transform="translate(-31.903 -0.114)" fill="#818ddb"/>
      </g>
    </g>
  </g>
</svg>
