<svg xmlns="http://www.w3.org/2000/svg" width="43.295" height="39.625" viewBox="0 0 43.295 39.625">
  <g id="Group_11681" data-name="Group 11681" transform="translate(-1046 -3568)">
    <path id="Path_20451" data-name="Path 20451" d="M-94.988,101.35a19.826,19.826,0,0,0-17.582-19.7,20.344,20.344,0,0,1,15.259,19.7,20.344,20.344,0,0,1-15.259,19.7A19.826,19.826,0,0,0-94.988,101.35Z" transform="translate(1184.282 3486.476)" fill="#fff"/>
    <path id="Path_20452" data-name="Path 20452" d="M-220.921,81.028q-.518-.027-1.043-.027c-.488,0-.971.024-1.451.058-.217.016-.435.031-.651.053a19.722,19.722,0,0,0-10.165,4.144,19.785,19.785,0,0,0-7.56,15.57,19.786,19.786,0,0,0,7.56,15.57,19.725,19.725,0,0,0,10.165,4.144c.215.023.433.037.651.053l2.494.031a19.827,19.827,0,0,0,18.783-19.8A19.827,19.827,0,0,0-220.921,81.028Zm-1.043,34.535A14.753,14.753,0,0,1-236.7,100.827a14.753,14.753,0,0,1,14.736-14.736,14.753,14.753,0,0,1,14.736,14.736A14.753,14.753,0,0,1-221.965,115.564Z" transform="translate(1287.791 3486.999)" fill="#fff"/>
    <circle id="Ellipse_2945" data-name="Ellipse 2945" cx="13.522" cy="13.522" r="13.522" transform="translate(1049.559 3577.772) rotate(-13.283)" fill="#fff"/>
    <path id="Path_20453" data-name="Path 20453" d="M-152.6,142.079a1.8,1.8,0,0,1-.058.311,2.071,2.071,0,0,1-.116.319,2.141,2.141,0,0,1-.152.282.712.712,0,0,1-.181.2.388.388,0,0,1-.232.072h-3.328l-1.461,7.264q-.058.3-.1.68a5.692,5.692,0,0,0-.043.622,1.563,1.563,0,0,0,.311,1.078,1.3,1.3,0,0,0,1.006.34,3.133,3.133,0,0,0,.68-.065,4.74,4.74,0,0,0,.5-.138q.21-.072.369-.137a.742.742,0,0,1,.275-.065.222.222,0,0,1,.181.079.492.492,0,0,1,.065.3,2.606,2.606,0,0,1-.036.412c-.024.15-.056.3-.094.442a2.043,2.043,0,0,1-.145.39,1.056,1.056,0,0,1-.188.275,1.374,1.374,0,0,1-.347.2,3.652,3.652,0,0,1-.535.181,5.094,5.094,0,0,1-.644.123,5.318,5.318,0,0,1-.673.043,5.027,5.027,0,0,1-1.4-.174,2.5,2.5,0,0,1-1-.543,2.22,2.22,0,0,1-.6-.926,4.058,4.058,0,0,1-.2-1.339q0-.174.014-.383c.01-.14.027-.287.051-.441s.048-.309.072-.463.051-.3.08-.434l1.461-7.322h-1.809a.318.318,0,0,1-.246-.094.563.563,0,0,1-.087-.369,2.993,2.993,0,0,1,.043-.47,2.619,2.619,0,0,1,.131-.5,1.266,1.266,0,0,1,.224-.391.418.418,0,0,1,.325-.159h1.823l.622-3.1a.347.347,0,0,1,.094-.188.676.676,0,0,1,.224-.152,1.355,1.355,0,0,1,.384-.094,5.027,5.027,0,0,1,.586-.029,4.656,4.656,0,0,1,.572.029,1.055,1.055,0,0,1,.347.094.326.326,0,0,1,.159.152.354.354,0,0,1,.022.188l-.622,3.1h3.328a.286.286,0,0,1,.289.159.864.864,0,0,1,.072.362Q-152.581,141.927-152.6,142.079Z" transform="translate(1223.24 3441.569)" fill="#818ddb"/>
  </g>
</svg>
