<svg xmlns="http://www.w3.org/2000/svg" width="26.17" height="23" viewBox="0 0 26.17 23">
  <path id="hello_1_" data-name="hello (1)" d="M25.054,11.882a4.544,4.544,0,0,0-3,1.091c-2.579,2.629-2.409,2.456-2.426,2.471a1.32,1.32,0,0,1-2.205-.8,18.477,18.477,0,0,1,.014-2.132l2.849-9.364A1.346,1.346,0,0,0,19.2,1.488a1.565,1.565,0,0,0-1.879.956s.061-.189-2.984,9.168c-.134.411-.828.326-.828-.1V1.363A1.454,1.454,0,0,0,11.971.011a1.454,1.454,0,0,0-1.535,1.352v9.851c0,.432-.7.512-.829.1L7.043,2.883a1.382,1.382,0,0,0-.716-.822c-1.176-.6-2.6.359-2.248,1.522l2.63,8.643c.127.418-.529.654-.773.281l-3.475-5.3a1.358,1.358,0,0,0-1.143-.581A1.17,1.17,0,0,0,.178,8.367l2.441,3.722a9.068,9.068,0,0,1,1.513,4.974c0,3.279,3.029,5.947,6.753,5.947h1.541A7.891,7.891,0,0,0,17.657,21.1l8.157-7.519a.972.972,0,0,0,.353-.669A1.046,1.046,0,0,0,25.054,11.882ZM16.6,15.711a5.672,5.672,0,0,0-5.3,5.326.426.426,0,0,1-.844,0c0-3.053,2.593-5.659,6.03-6.061a.416.416,0,0,1,.474.319.383.383,0,0,1-.362.416Z" transform="translate(0 -0.011)" fill="#818ddb"/>
</svg>
