<svg id="logout_2_" data-name="logout (2)" xmlns="http://www.w3.org/2000/svg" width="23.225" height="21.193" viewBox="0 0 23.225 21.193">
  <g id="Group_11312" data-name="Group 11312" transform="translate(19.38 8.163)">
    <g id="Group_11311" data-name="Group 11311" transform="translate(0 0)">
      <path id="Path_17232" data-name="Path 17232" d="M430.783,204.239l-2.485-1.752a.681.681,0,0,0-1.073.556v3.5a.681.681,0,0,0,1.072.556l2.485-1.752A.681.681,0,0,0,430.783,204.239Z" transform="translate(-427.225 -202.361)" fill="#818ddb"/>
    </g>
  </g>
  <g id="Group_11314" data-name="Group 11314">
    <g id="Group_11313" data-name="Group 11313" transform="translate(0 0)">
      <path id="Path_17233" data-name="Path 17233" d="M19.527,37.369a.681.681,0,0,0-.93.248,9.236,9.236,0,1,1,0-9.235.68.68,0,1,0,1.178-.681,10.6,10.6,0,1,0,0,10.6A.681.681,0,0,0,19.527,37.369Z" transform="translate(0 -22.404)" fill="#818ddb"/>
    </g>
  </g>
  <g id="Group_11316" data-name="Group 11316" transform="translate(6.768 9.916)">
    <g id="Group_11315" data-name="Group 11315" transform="translate(0 0)">
      <path id="Path_17234" data-name="Path 17234" d="M149.872,241a.68.68,0,1,0,0,1.361h10.571V241Z" transform="translate(-149.192 -241.001)" fill="#818ddb"/>
    </g>
  </g>
</svg>
