<svg id="password" xmlns="http://www.w3.org/2000/svg" width="25.001" height="14.584" viewBox="0 0 25.001 14.584">
  <g id="Group_11306" data-name="Group 11306">
    <g id="Group_11305" data-name="Group 11305" transform="translate(0 0)">
      <path id="Path_17228" data-name="Path 17228" d="M20.313,108.75a4.6,4.6,0,0,1,1.866.406.521.521,0,0,0,.731-.5,2.077,2.077,0,0,0-2.076-1.99H2.083A2.085,2.085,0,0,0,0,108.75v5.209a2.085,2.085,0,0,0,2.083,2.083h11.98a.521.521,0,0,0,.521-.521V115a2.091,2.091,0,0,1,.879-1.693.52.52,0,0,0,.215-.368A4.667,4.667,0,0,1,20.313,108.75Zm-15.5,2.674a.521.521,0,0,1-.521.9l-.121-.07v.14a.521.521,0,1,1-1.042,0v-.14l-.121.07a.521.521,0,1,1-.521-.9l.121-.07-.121-.07a.521.521,0,0,1,.521-.9l.121.07v-.14a.521.521,0,1,1,1.042,0v.14l.121-.07a.521.521,0,0,1,.521.9l-.121.07Zm4.167,0a.521.521,0,0,1-.521.9l-.121-.07v.14a.521.521,0,1,1-1.042,0v-.14l-.121.07a.521.521,0,1,1-.521-.9l.121-.07-.121-.07a.521.521,0,0,1,.521-.9l.121.07v-.14a.521.521,0,1,1,1.042,0v.14l.121-.07a.521.521,0,0,1,.521.9l-.121.07Zm4.167,0a.521.521,0,0,1-.521.9l-.121-.07v.14a.521.521,0,1,1-1.042,0v-.14l-.121.07a.521.521,0,1,1-.521-.9l.121-.07-.121-.07a.521.521,0,0,1,.521-.9l.121.07v-.14a.521.521,0,1,1,1.042,0v.14l.121-.07a.521.521,0,0,1,.521.9l-.121.07Z" transform="translate(0 -106.667)" fill="#818ddb"/>
      <path id="Path_17229" data-name="Path 17229" d="M328.334,174.833v-.521a3.646,3.646,0,1,0-7.292,0v.521A1.043,1.043,0,0,0,320,175.875v5.209a1.043,1.043,0,0,0,1.042,1.042h7.292a1.043,1.043,0,0,0,1.042-1.042v-5.209A1.043,1.043,0,0,0,328.334,174.833Zm-3.125,4.007v.681a.521.521,0,1,1-1.042,0v-.681a1.028,1.028,0,0,1-.521-.882,1.042,1.042,0,1,1,2.083,0A1.028,1.028,0,0,1,325.209,178.84Zm1.042-4.007h-3.125v-.521a1.563,1.563,0,1,1,3.125,0Z" transform="translate(-304.374 -167.541)" fill="#818ddb"/>
    </g>
  </g>
</svg>
