<svg id="user_12_" data-name="user (12)" xmlns="http://www.w3.org/2000/svg" width="22.043" height="23.599" viewBox="0 0 22.043 23.599">
  <path id="Path_17220" data-name="Path 17220" d="M256,432.815l2.491-.575-1.916-1.916Z" transform="translate(-244.977 -409.216)" fill="#818ddb"/>
  <path id="Path_17221" data-name="Path 17221" d="M58.572,220.632l.412-1.786,0-.013.006-.022.007-.02.007-.018.01-.021.008-.015.013-.022.009-.013.015-.021.01-.012.017-.019.007-.008,5.554-5.554A8.528,8.528,0,0,0,56.944,208a8.241,8.241,0,0,0-6.276,2.907,11.557,11.557,0,0,0-2.625,7.434,21.989,21.989,0,0,0,8.9,2.376A15.793,15.793,0,0,0,58.572,220.632Z" transform="translate(-48.043 -198.673)" fill="#818ddb"/>
  <path id="Path_17222" data-name="Path 17222" d="M0,0H9.327V3.392H0Z" transform="translate(11.95 20.267) rotate(-45)" fill="#818ddb"/>
  <circle id="Ellipse_2895" data-name="Ellipse 2895" cx="4.239" cy="4.239" r="4.239" transform="translate(4.661)" fill="#818ddb"/>
  <path id="Path_17223" data-name="Path 17223" d="M412.268,271.023a1.7,1.7,0,0,0-2.895-1.2l2.4,2.4a1.684,1.684,0,0,0,.5-1.2Z" transform="translate(-390.225 -256.751)" fill="#818ddb"/>
</svg>
