<svg xmlns="http://www.w3.org/2000/svg" width="22.065" height="21.181" viewBox="0 0 22.065 21.181">
  <g id="wallet-filled-money-tool" transform="translate(0 -78.84)">
    <g id="Group_11304" data-name="Group 11304" transform="translate(0 78.84)">
      <path id="Path_17224" data-name="Path 17224" d="M160.7,21.872l8.8-2.4-.466-.942a1.24,1.24,0,0,0-1.66-.56l-7.875,3.9Z" transform="translate(-155.548 -17.84)" fill="#818ddb"/>
      <path id="Path_17225" data-name="Path 17225" d="M330.7,86.46a1.239,1.239,0,0,0-.327.045l-2.066.565L322,88.792h10.286l-.387-1.417A1.237,1.237,0,0,0,330.7,86.46Z" transform="translate(-314.021 -84.76)" fill="#818ddb"/>
      <path id="Path_17226" data-name="Path 17226" d="M19.555,215.56H1.241a1.241,1.241,0,0,0-1.2.914A1.283,1.283,0,0,0,0,216.8v13.8a1.239,1.239,0,0,0,1.239,1.239H19.553a1.239,1.239,0,0,0,1.239-1.239v-3.457H13.44a2.108,2.108,0,0,1-2.106-2.106v-2.755a2.1,2.1,0,0,1,2.1-2.1h7.354V216.8A1.236,1.236,0,0,0,19.555,215.56Z" transform="translate(0 -210.661)" fill="#818ddb"/>
      <path id="Path_17227" data-name="Path 17227" d="M501.861,437.086a1.238,1.238,0,0,0-.434-.258,1.263,1.263,0,0,0-.4-.067h-7.387A1.239,1.239,0,0,0,492.4,438v2.758A1.239,1.239,0,0,0,493.639,442h7.387a1.263,1.263,0,0,0,.4-.067,1.2,1.2,0,0,0,.434-.258,1.235,1.235,0,0,0,.4-.914V438A1.235,1.235,0,0,0,501.861,437.086Zm-5.635,2.54a.62.62,0,0,1-.619.619H495.2a.62.62,0,0,1-.619-.619v-.411a.607.607,0,0,1,.238-.486.626.626,0,0,1,.382-.134h.411a.62.62,0,0,1,.619.619v.411Z" transform="translate(-480.199 -426.381)" fill="#818ddb"/>
    </g>
  </g>
</svg>
